<?xml version="1.0" encoding="UTF-8"?>
<svg version="1.1" xmlns="http://www.w3.org/2000/svg" width="1567" height="286">
<path d="M0 0 C22.77 0 45.54 0 69 0 C70.38393021 4.84375573 71.43961201 9.11705446 72.18960571 14.02989197 C72.29340337 14.70149198 72.39720103 15.37309198 72.50414407 16.06504351 C72.8477151 18.29524982 73.18484611 20.52637953 73.52197266 22.75756836 C73.76818092 24.36455143 74.01478868 25.97147334 74.26176453 27.57833862 C74.92890208 31.92634673 75.59046565 36.27518648 76.25101519 40.62419963 C76.94309809 45.17440682 77.64032718 49.72382528 78.33700562 54.27333069 C79.65450318 62.88216732 80.96738583 71.49170109 82.27860296 80.10149628 C83.77201712 89.90613107 85.27058795 99.70997547 86.76958776 109.51375759 C89.85212158 129.67496555 92.92819357 149.83715499 96 170 C100.576313 141.16730918 105.12273038 112.33062256 109.5625 83.4765625 C109.7462619 82.2829586 109.9300238 81.08935471 110.11935425 79.85958099 C111.80077022 68.93755027 113.48001906 58.0151878 115.15576172 47.09228516 C116.09111651 40.99623325 117.02898158 34.90057204 117.96847534 28.80515671 C118.32031094 26.51909646 118.67117561 24.23288656 119.02102661 21.94652176 C119.50123205 18.80854183 119.98461257 15.67106673 120.46875 12.53369141 C120.60997787 11.60544556 120.75120575 10.67719971 120.89671326 9.7208252 C121.0281221 8.87351837 121.15953094 8.02621155 121.29492188 7.15322876 C121.40767456 6.41884897 121.52042725 5.68446918 121.63659668 4.92783546 C122 3 122 3 123 0 C136.86 0 150.72 0 165 0 C166.14893515 7.20784955 167.29476354 14.41616708 168.4375 21.625 C168.71654175 23.38396606 168.71654175 23.38396606 169.0012207 25.1784668 C171.97424336 43.94080078 174.88587421 62.71227796 177.77079964 81.48835373 C178.34741803 85.24063732 178.92454152 88.9928429 179.5018158 92.74502563 C179.88932439 95.26409733 180.2768213 97.78317082 180.66430664 100.30224609 C180.95308953 102.17962306 180.95308953 102.17962306 181.24770641 104.09492683 C182.41865231 111.71026107 183.58565851 119.32618801 184.75018215 126.94250679 C185.48825347 131.76418411 186.22967717 136.58534179 186.97193718 141.40637589 C187.32281094 143.69035484 187.67220282 145.97456196 188.02008247 148.25899887 C188.49922498 151.40437479 188.98336698 154.54894139 189.46875 157.69335938 C189.60999518 158.62890467 189.75124037 159.56444996 189.89676571 160.52834511 C190.18417074 164.59699613 190.18417074 164.59699613 192 168 C192.19188227 166.7468259 192.19188227 166.7468259 192.38764095 165.46833515 C195.49944467 145.14581577 198.6125073 124.82348958 201.72697353 104.50137806 C203.2330709 94.67378362 204.73874114 84.84612409 206.2434082 75.01831055 C207.55478129 66.4530142 208.8669534 57.8878407 210.18008763 49.32281417 C210.87543588 44.78716097 211.57038219 40.251447 212.26437187 35.71558571 C212.91754791 31.44656357 213.57179198 27.17770649 214.22685623 22.90897369 C214.46710753 21.34211697 214.70696826 19.77520029 214.94640923 18.20821953 C215.27343532 16.06844418 215.60186749 13.92888918 215.9306488 11.78938293 C216.20580401 9.99326931 216.20580401 9.99326931 216.48651791 8.16087055 C216.93014762 5.42999421 217.45741031 2.71294846 218 0 C240.77 0 263.54 0 287 0 C286.39686051 6.63453437 285.7989458 12.90286989 284.53132629 19.37965393 C284.31209905 20.53437452 284.31209905 20.53437452 284.08844298 21.71242279 C283.60410646 24.25661779 283.11226073 26.79929835 282.62036133 29.34204102 C282.26809065 31.1840757 281.91629224 33.02620075 281.56492615 34.8684082 C280.61012544 39.86728239 279.64879335 44.86488073 278.68634248 49.86228681 C277.6639516 55.17736769 276.6478271 60.49364644 275.63102722 65.80979919 C273.68989074 75.95375641 271.74347438 86.09669275 269.79502839 96.23924822 C266.99836862 110.79832589 264.20963428 125.35892143 261.42048454 139.91943932 C260.99898178 142.11982606 260.57747872 144.32021274 260.15597534 146.52059937 C259.94815457 147.60554699 259.7403338 148.69049462 259.52621543 149.80831945 C258.27515746 156.33901026 257.02306875 162.86950248 255.77017915 169.39984214 C251.71027365 190.56200401 247.66345076 211.72641032 243.67333984 232.90185547 C243.33738973 234.68374991 243.0014392 236.46564428 242.66548824 238.24753857 C241.26826159 245.66107115 239.8730363 253.07496293 238.48564291 260.49034262 C237.94002537 263.40385485 237.39214039 266.31693751 236.84371591 269.22992253 C236.47434154 271.1965933 236.10817727 273.16386613 235.7421093 275.13115501 C235.52502375 276.28295061 235.30793819 277.43474621 235.08427429 278.6214447 C234.89754497 279.61961684 234.71081564 280.61778898 234.51842785 281.64620876 C234 284 234 284 233 286 C209.9 286 186.8 286 163 286 C156.73 260.92 150.46 235.84 144 210 C138.16248568 233.14004029 138.16248568 233.14004029 132.33251953 256.28198242 C131.19897461 260.76623535 131.19897461 260.76623535 130.66671753 262.86811829 C130.29720137 264.33007797 129.92904577 265.79238196 129.5619812 267.25495911 C129.004346 269.47573368 128.44234562 271.69536282 127.87939453 273.91479492 C127.56406769 275.16499924 127.24874084 276.41520355 126.92385864 277.70329285 C126 281 126 281 124 286 C100.9 286 77.8 286 54 286 C52.93265625 280.38129883 51.8653125 274.76259766 50.765625 268.97363281 C47.16568543 250.02303164 43.56551615 231.07247412 39.96524048 212.1219368 C37.57959484 199.56473742 35.19406708 187.00751567 32.80870438 174.45026255 C31.1257037 165.5905196 29.44252919 156.73080968 27.75925827 147.87111807 C26.71283508 142.36334648 25.66650035 136.85555812 24.62036133 131.34773254 C20.3447069 108.83701427 16.06535427 86.32702375 11.76652908 63.82071733 C11.18795565 60.79133846 10.60960585 57.76191699 10.03134155 54.7324791 C9.6577761 52.77548976 9.28421043 50.81850048 8.91064453 48.86151123 C8.72934935 47.91172701 8.54805416 46.96194278 8.36126518 45.98337722 C7.30117973 40.43068907 6.2393849 34.87833119 5.17629433 29.32621765 C4.53173553 25.95805297 3.88863947 22.58961023 3.24594498 19.22108936 C2.94949624 17.66912025 2.65239791 16.11727505 2.35461044 14.56556225 C1.95186213 12.46660961 1.55133217 10.36724573 1.15136719 8.26776123 C0.81549591 6.51222994 0.81549591 6.51222994 0.47283936 4.72123337 C0 2 0 2 0 0 Z " fill="#FFFFFF" transform="translate(742,0)"/>
<path d="M0 0 C27.39 0 54.78 0 83 0 C88.7420241 28.71012052 88.7420241 28.71012052 90.47949219 38.34716797 C90.68344101 39.46766037 90.88738983 40.58815277 91.09751892 41.74259949 C91.52837689 44.11125334 91.95826691 46.48008347 92.3871994 48.84908676 C93.06626158 52.59925113 93.74817066 56.34888895 94.4307251 60.09841919 C95.87289906 68.02350816 97.31172959 75.94920181 98.75 83.875 C100.43246937 93.14636745 102.11640536 102.41746313 103.80399323 111.68790054 C104.47549961 115.38087695 105.14438543 119.07432186 105.81317139 122.76779175 C106.22134708 125.0117219 106.62964506 127.25562982 107.03808594 129.49951172 C107.22300095 130.5247847 107.40791595 131.55005768 107.59843445 132.60639954 C107.76928055 133.54202225 107.94012665 134.47764496 108.1161499 135.44161987 C108.26359524 136.25443357 108.41104057 137.06724728 108.56295395 137.9046917 C108.99480771 140.17751476 108.99480771 140.17751476 110 143 C118.58 95.81 127.16 48.62 136 0 C163.39 0 190.78 0 219 0 C219 94.38 219 188.76 219 286 C196.23 286 173.46 286 150 286 C149.67 247.06 149.34 208.12 149 168 C147.27910156 176.35054687 145.55820312 184.70109375 143.78515625 193.3046875 C142.55788377 199.25281369 141.33025761 205.20086603 140.10211849 211.14881325 C138.50959411 218.8617379 136.91791632 226.57483416 135.3293457 234.28857422 C134.07195809 240.39415096 132.81260773 246.49931894 131.55087942 252.60400021 C130.8826156 255.83764197 130.21564263 259.07154135 129.55043221 262.30581284 C128.80843348 265.91258743 128.0629679 269.51862869 127.31665039 273.12451172 C127.09582794 274.20200684 126.87500549 275.27950195 126.64749146 276.38964844 C126.44417709 277.36843964 126.24086273 278.34723083 126.03138733 279.35568237 C125.85532487 280.20926268 125.67926241 281.06284298 125.49786472 281.94228935 C125 284 125 284 124 286 C114.43 286 104.86 286 95 286 C86.75 246.4 78.5 206.8 70 166 C69.67 205.6 69.34 245.2 69 286 C46.23 286 23.46 286 0 286 C0 191.62 0 97.24 0 0 Z " fill="#FFFFFF" transform="translate(360,0)"/>
<path d="M0 0 C137.12231013 0 137.12231013 0 151.9375 13.0625 C164.37939547 27.23681129 165.48346709 46.01517361 165.36328125 63.93359375 C165.36276011 65.50667826 165.36328756 67.07976342 165.36479187 68.65284729 C165.36470306 71.92271874 165.35446347 75.19233902 165.33618164 78.4621582 C165.31351718 82.60111472 165.31295716 86.73970541 165.31969929 90.87870693 C165.32308123 94.11944182 165.31633059 97.36009709 165.30657005 100.60081673 C165.30278865 102.1246505 165.30153955 103.64849325 165.3031559 105.17233086 C165.30458312 113.21545783 165.01559246 121.13432795 164.09057617 129.12915039 C163.97146991 130.15870551 163.97146991 130.15870551 163.84995747 131.20905972 C162.38156327 142.79035172 159.10433093 153.57392806 150.1875 161.5 C147.23145703 162.89107905 145.47530937 163.2938854 142.30078125 163.59375 C141.09095581 163.71266602 141.09095581 163.71266602 139.85668945 163.83398438 C139.24398193 163.88876953 138.63127441 163.94355469 138 164 C138.35252586 165.5625779 138.35252586 165.5625779 138.71217346 167.15672302 C140.96375765 177.13821341 143.21306927 187.12021375 145.46034336 197.10267544 C146.61481561 202.23055988 147.76999659 207.35828216 148.92700195 212.4855957 C150.0505849 217.46493385 151.17203955 222.44474754 152.29221916 227.42485237 C152.71275068 229.29288728 153.13395822 231.16077019 153.55597115 233.02847099 C157.53729353 250.65272447 161.25008141 268.32181235 165 286 C141.9 286 118.8 286 95 286 C86.75 253 78.5 220 70 186 C69.67 219 69.34 252 69 286 C46.23 286 23.46 286 0 286 C0 191.62 0 97.24 0 0 Z M69 69 C69 82.2 69 95.4 69 109 C77.91 109 86.82 109 96 109 C96 95.8 96 82.6 96 69 C87.09 69 78.18 69 69 69 Z " fill="#FFFFFF" transform="translate(1396,0)"/>
<path d="M0 0 C0.71005188 -0.0049649 1.42010376 -0.00992981 2.15167236 -0.01504517 C4.48125207 -0.02954714 6.81076358 -0.03645039 9.14038086 -0.04199219 C10.34570371 -0.04623325 10.34570371 -0.04623325 11.57537651 -0.05056 C15.83199257 -0.06550775 20.08857516 -0.07476376 24.34521484 -0.07910156 C28.70335242 -0.08456466 33.0611742 -0.10855947 37.41921329 -0.13707352 C40.80393821 -0.15586423 44.18858972 -0.16091425 47.57336235 -0.16243744 C49.17784784 -0.16543006 50.78233312 -0.17334105 52.38676643 -0.18662262 C69.16030133 -0.31551126 86.30818876 1.60989585 99.48022461 13.22363281 C112.53113011 28.091753 112.99997605 47.75099484 112.9309082 66.44042969 C112.93498432 68.31828616 112.94033198 70.19614024 112.94683838 72.07398987 C112.96039421 77.12566948 112.95526234 82.17716316 112.94570112 87.2288456 C112.93804314 92.54510582 112.94516702 97.86135137 112.94985962 103.1776123 C112.95529944 112.10102156 112.94817232 121.02435604 112.93383789 129.94775391 C112.91751485 140.22703212 112.92280461 150.50613174 112.93931711 160.78540564 C112.95298273 169.65131314 112.95482693 178.51716726 112.9470011 187.38308191 C112.94235238 192.66064533 112.94162184 197.93812512 112.95161057 203.21568298 C112.96035227 208.18008109 112.95412843 213.14425159 112.9369278 218.10862541 C112.93300108 219.91765403 112.93403045 221.7267022 112.94071579 223.53572273 C113.00033114 241.32346909 112.0135707 260.51774589 99.10522461 274.22363281 C97.94896853 275.2395046 96.76149113 276.22116909 95.54272461 277.16113281 C94.96135742 277.61746094 94.37999023 278.07378906 93.78100586 278.54394531 C81.80406754 286.93031303 68.23346567 286.76136593 54.26147461 286.69238281 C52.31579393 286.69508445 50.37011458 286.69897242 48.42443848 286.70397949 C44.36656716 286.70984297 40.30905046 286.70141398 36.2512207 286.68261719 C31.08364371 286.65982968 25.91689809 286.67296979 20.7493515 286.69690704 C16.73754764 286.71145071 12.72593667 286.70672001 8.71412659 286.69639587 C6.81018472 286.69375219 4.90622458 286.69691397 3.00230408 286.70631409 C-13.5505063 286.77013025 -26.76794694 285.03464167 -39.45336914 273.31738281 C-52.98485962 259.11659281 -52.91449821 238.38947085 -52.84545898 219.96777344 C-52.84953625 218.11109613 -52.85488454 216.25442125 -52.86138916 214.39775085 C-52.87493137 209.40804396 -52.86981891 204.41852555 -52.8602519 199.42881584 C-52.8525867 194.17442236 -52.85971977 188.92004362 -52.8644104 183.66564941 C-52.86984816 174.84656923 -52.86272858 166.02756475 -52.84838867 157.20849609 C-52.83206603 147.05361632 -52.83735594 136.89891732 -52.85386789 126.74404192 C-52.86753945 117.98085768 -52.86937484 109.21772744 -52.86155188 100.45453596 C-52.85690638 95.24011242 -52.8561635 90.02577349 -52.86616135 84.81135559 C-52.87491183 79.90603606 -52.86866369 75.00094664 -52.85147858 70.09565163 C-52.84755644 68.30961804 -52.84857306 66.52356464 -52.85526657 64.73753929 C-52.91815972 46.23077541 -51.87691429 27.09415458 -38.42211914 12.90332031 C-27.74302316 3.43438034 -13.97059821 0.07484042 0 0 Z M16.54272461 69.16113281 C16.54272461 118.33113281 16.54272461 167.50113281 16.54272461 218.16113281 C25.45272461 218.16113281 34.36272461 218.16113281 43.54272461 218.16113281 C43.54272461 168.99113281 43.54272461 119.82113281 43.54272461 69.16113281 C34.63272461 69.16113281 25.72272461 69.16113281 16.54272461 69.16113281 Z " fill="#FFFFFF" transform="translate(235.457275390625,-0.1611328125)"/>
<path d="M0 0 C27.39 0 54.78 0 83 0 C91.88457999 46.51865772 91.88457999 46.51865772 95.7265625 66.63671875 C98.33679652 80.30487271 100.94706728 93.97301965 103.55761719 107.64111328 C104.4003957 112.05370997 105.24316726 116.46630798 106.0859375 120.87890625 C106.29444084 121.97058011 106.50294418 123.06225397 106.71776581 124.18700886 C109.02290636 136.25631977 111.32753725 148.32572766 113.63085938 160.39538574 C113.83677074 161.47436111 114.04268211 162.55333648 114.25483322 163.66500807 C115.96137757 172.60731975 115.96137757 172.60731975 116.73303986 176.6511488 C119.16571383 189.39894304 121.60118082 202.14619695 124.04147148 214.89253545 C125.57544974 222.90506868 127.10774863 230.9179217 128.63873482 238.93102717 C129.69827183 244.47591642 130.76010848 250.0203585 131.82370567 255.56447029 C132.46890251 258.93074104 133.11182213 262.29744354 133.75405502 265.66428089 C134.05018992 267.21420828 134.34727991 268.76395353 134.64538956 270.31350231 C135.0490046 272.41211987 135.44925161 274.51135207 135.84863281 276.61077881 C136.072547 277.78042049 136.29646118 278.95006218 136.52716064 280.15514755 C137 283 137 283 137 286 C114.23 286 91.46 286 68 286 C65.74634794 276.98539177 65.74634794 276.98539177 65.1484375 273.01953125 C65.01953125 272.16552734 64.890625 271.31152344 64.7578125 270.43164062 C64.63148437 269.56732422 64.50515625 268.70300781 64.375 267.8125 C64.17390625 266.49862305 64.17390625 266.49862305 63.96875 265.15820312 C63.35022192 260.99576162 63 257.24310107 63 253 C48.81 253.33 34.62 253.66 20 254 C18.35 264.56 16.7 275.12 15 286 C-8.1 286 -31.2 286 -55 286 C-44.11287591 228.26949974 -33.18371048 170.54714947 -22.18475342 112.83784485 C-19.89109632 100.80340979 -17.59959707 88.76856806 -15.31081247 76.73320532 C-13.66159305 68.06182003 -12.01012061 59.39086576 -10.35691214 50.72024012 C-9.38260478 45.6099683 -8.40926057 40.4995177 -7.43836975 35.38859558 C-6.54115916 30.66579801 -5.64117794 25.94353721 -4.73897362 21.22169113 C-4.40937065 19.49399288 -4.08079594 17.76609812 -3.75330544 16.0379982 C-3.30845125 13.69142523 -2.85996871 11.345575 -2.41052246 8.99987793 C-2.28106625 8.31225042 -2.15161004 7.62462291 -2.01823092 6.9161582 C-1.11413773 2.22827547 -1.11413773 2.22827547 0 0 Z M41 115 C38.4920848 127.79849574 36.42161418 140.64829119 34.42578125 153.53515625 C34.09383298 155.67029353 33.7618157 157.80542008 33.42973328 159.9405365 C32.73966622 164.38187131 32.05168867 168.82352404 31.36499023 173.26538086 C30.4860265 178.94856884 29.59981377 184.63060112 28.71183491 190.31238651 C28.02621354 194.70676882 27.34539127 199.10188479 26.66591454 203.49722099 C26.34108855 205.59339275 26.01455186 207.68930018 25.68624306 209.78492928 C25.2289135 212.70751077 24.77831003 215.63105505 24.3293457 218.55493164 C24.19379776 219.41164963 24.05824982 220.26836761 23.91859436 221.15104675 C23.20825513 225.82929563 22.86488063 230.26799302 23 235 C25.35097583 233.01860989 27.67987159 231.01731666 30 229 C30.97469238 228.15356934 31.94938477 227.30713867 32.95361328 226.43505859 C35.79341479 223.94340803 38.5662145 221.38719845 41.3190918 218.80004883 C42.48038052 217.72592587 43.65904585 216.67028768 44.85424805 215.6340332 C45.44052979 215.12380615 46.02681152 214.6135791 46.63085938 214.08789062 C47.15216431 213.64360718 47.67346924 213.19932373 48.21057129 212.74157715 C53.48990046 207.35535847 53.48990046 207.35535847 55.14491272 200.21774292 C54.95205906 198.85917651 54.72770735 197.50481474 54.47680664 196.15576172 C54.36469912 195.41911569 54.25259159 194.68246965 54.13708687 193.92350101 C53.89950539 192.37878884 53.64937794 190.83595811 53.38722801 189.29522514 C53.0176092 187.10437542 52.68780564 184.91208608 52.37458801 182.71253967 C51.74875924 178.33306346 51.07560076 173.96163177 50.3984375 169.58984375 C50.1544147 167.99992268 49.91065583 166.40996108 49.66714478 164.81996155 C49.03520255 160.69831562 48.39975375 156.57721831 47.76348877 152.45623779 C47.11097564 148.22571786 46.46189669 143.99467111 45.8125 139.76367188 C44.54496426 131.50860496 43.27371125 123.25411632 42 115 C41.67 115 41.34 115 41 115 Z " fill="#FFFFFF" transform="translate(1246,0)"/>
<path d="M0 0 C2.33125316 0.00747693 4.66251268 0.01316298 6.99377441 0.01715088 C13.07649639 0.03229286 19.15882541 0.07147413 25.24139404 0.1159668 C32.56792584 0.16443523 39.89459035 0.18250802 47.22123718 0.20578003 C58.30401326 0.24433344 69.38593016 0.32106755 80.46875 0.390625 C80.46875 23.160625 80.46875 45.930625 80.46875 69.390625 C72.77691406 69.44669922 72.77691406 69.44669922 64.9296875 69.50390625 C61.67574801 69.53419213 58.42186282 69.56534395 55.16796875 69.59960938 C50.00637584 69.6538817 44.84489032 69.70499369 39.68310547 69.73706055 C35.52024758 69.76312269 31.35775146 69.8035454 27.19511795 69.85381126 C25.60920343 69.87046036 24.02322637 69.88198682 22.43723679 69.88823891 C20.21086706 69.89790162 17.98541874 69.92598488 15.75927734 69.95825195 C14.49352875 69.96935501 13.22778015 69.98045807 11.92367554 69.99189758 C8.12129769 70.43072391 5.70798665 71.37564271 2.46875 73.390625 C-0.87002363 78.39878544 -0.71325332 83.38418256 -0.71875 89.265625 C-0.73099609 89.94753906 -0.74324219 90.62945312 -0.75585938 91.33203125 C-0.76915452 95.98533238 -0.35981568 100.04188713 1.46875 104.390625 C6.41608102 108.65198357 10.24582546 108.94562672 16.4609375 108.859375 C17.32453888 108.86642456 18.18814026 108.87347412 19.07791138 108.8807373 C22.74350971 108.90995019 26.408564 108.89380249 30.07421875 108.88134766 C47.7207113 108.86543271 63.98517986 109.96923499 77.70703125 122.421875 C93.02592111 138.34659666 94.61746789 160.98701249 94.63671875 181.9296875 C94.64004715 183.20935394 94.64337555 184.48902039 94.64680481 185.8074646 C94.65275389 188.50527795 94.65464922 191.20305948 94.65405273 193.90087891 C94.65397168 196.63336841 94.66088763 199.36568954 94.67456055 202.09814453 C94.9234627 252.65303447 94.9234627 252.65303447 80.46875 271.390625 C79.72044922 272.37095703 79.72044922 272.37095703 78.95703125 273.37109375 C73.39574591 279.71684252 63.76184791 284.72402695 55.46875 286.390625 C53.89295667 286.47713496 52.31394403 286.51264876 50.73577881 286.51087952 C49.7878949 286.51225418 48.84001099 286.51362885 47.86340332 286.51504517 C46.83050171 286.51144989 45.7976001 286.50785461 44.73339844 286.50415039 C43.64041443 286.50429642 42.54743042 286.50444244 41.42132568 286.5045929 C37.8069053 286.50389596 34.19253639 286.49611376 30.578125 286.48828125 C28.07277454 286.48641629 25.56742371 286.48499276 23.06207275 286.48399353 C17.14064789 286.48056487 11.21923956 286.47268251 5.29782319 286.46264404 C-3.2892493 286.44840289 -11.87632809 286.44316737 -20.46340942 286.43683624 C-32.48603825 286.42713734 -44.5086188 286.40797646 -56.53125 286.390625 C-56.53125 263.950625 -56.53125 241.510625 -56.53125 218.390625 C-51.31957031 218.35324219 -46.10789062 218.31585938 -40.73828125 218.27734375 C-37.43421187 218.24706338 -34.13019633 218.21591517 -30.82617188 218.18164062 C-25.58327963 218.12733576 -20.34049388 218.07622507 -15.09741211 218.04418945 C-10.86972241 218.01815675 -6.6423907 217.97775478 -2.41492271 217.92743874 C-0.80306136 217.91076976 0.80886191 217.89925566 2.42079735 217.89301109 C4.68089593 217.88337009 6.94007862 217.8553125 9.19995117 217.82299805 C10.48568527 217.81189499 11.77141937 217.80079193 13.09611511 217.78935242 C16.72146242 217.36074825 18.59861005 216.60994684 21.46875 214.390625 C24.5281776 209.04664665 24.93549372 204.46609785 24.84375 198.390625 C24.85535156 197.62234375 24.86695312 196.8540625 24.87890625 196.0625 C24.85202171 190.79313074 24.17596569 186.9597654 21.46875 182.390625 C16.44157065 179.09190025 12.13697412 178.96321337 6.3359375 178.984375 C5.02630539 178.96812073 5.02630539 178.96812073 3.69021606 178.95153809 C0.90798558 178.91741513 -1.87383839 178.90172761 -4.65625 178.890625 C-23.91524709 178.81288598 -40.56288813 177.8328516 -55.2734375 163.90625 C-69.36811886 148.20214136 -70.67964638 125.4376499 -70.69921875 105.4453125 C-70.70254715 104.23602081 -70.70587555 103.02672913 -70.70930481 101.78079224 C-70.71434037 99.23439918 -70.71671418 96.68799959 -70.71655273 94.14160156 C-70.71873198 90.29741215 -70.73690454 86.45351354 -70.75585938 82.609375 C-70.81335862 57.88129539 -70.8487036 31.49123405 -52.703125 12.390625 C-38.13266493 -1.02677707 -18.52800218 -0.17630128 0 0 Z " fill="#FFFFFF" transform="translate(76.53125,-0.390625)"/>
<path d="M0 0 C45.54 0 91.08 0 138 0 C138 22.77 138 45.54 138 69 C115.23 69 92.46 69 69 69 C69 82.2 69 95.4 69 109 C91.77 109 114.54 109 138 109 C133.98339257 113.686042 130.20761822 117.81893103 125.64331055 121.85131836 C124.39214455 122.97301707 123.14208789 124.09595407 121.89299011 125.21995544 C120.91340867 126.10090283 120.91340867 126.10090283 119.9140377 126.99964714 C115.65968218 130.86132396 111.48591285 134.81019792 107.30763531 138.75382137 C103.66347206 142.18485551 99.99325157 145.57156214 96.23510742 148.87768555 C75.84362966 166.65766391 75.84362966 166.65766391 67.63033104 191.5193615 C67.17806586 200.42912479 68.29229891 209.0494333 69 218 C91.77 218 114.54 218 138 218 C138 240.44 138 262.88 138 286 C92.46 286 46.92 286 0 286 C0 191.62 0 97.24 0 0 Z " fill="#FFFFFF" transform="translate(1042,0)"/>
<path d="M0 0 C45.54 0 91.08 0 138 0 C138 22.77 138 45.54 138 69 C115.23 69 92.46 69 69 69 C69 82.2 69 95.4 69 109 C91.77 109 114.54 109 138 109 C133.98339257 113.686042 130.20761822 117.81893103 125.64331055 121.85131836 C124.39214455 122.97301707 123.14208789 124.09595407 121.89299011 125.21995544 C120.91340867 126.10090283 120.91340867 126.10090283 119.9140377 126.99964714 C115.65968218 130.86132396 111.48591285 134.81019792 107.30763531 138.75382137 C103.66347206 142.18485551 99.99325157 145.57156214 96.23510742 148.87768555 C75.84362966 166.65766391 75.84362966 166.65766391 67.63033104 191.5193615 C67.17806586 200.42912479 68.29229891 209.0494333 69 218 C91.77 218 114.54 218 138 218 C138 240.44 138 262.88 138 286 C92.46 286 46.92 286 0 286 C0 191.62 0 97.24 0 0 Z " fill="#FFFFFF" transform="translate(592,0)"/>
</svg>
